<svg width="309" height="206" viewBox="0 0 309 206" fill="none" xmlns="http://www.w3.org/2000/svg">
<path d="M154.839 54.0471C158.364 51.8769 161.086 50.0196 164.171 47.1489C165.68 45.7443 168.583 41.7637 170.105 41.0031C175.496 38.3099 182.989 45.626 181.458 51.2163C180.471 55.097 175.875 57.1445 172.242 58.003C181.166 65.2693 186.886 76.6549 189.742 87.6293C190.804 91.7129 192.396 99.2044 188.344 102.058C188.695 102.863 188.879 103.233 189.047 104.089C189.259 104.748 189.285 105.204 189.359 105.889C190.156 105.53 190.96 105.184 191.769 104.851C195.522 103.349 201.893 101.601 205.799 103.279C207.596 104.051 208.389 105.307 209.068 107.044C210.739 106.92 212.403 106.749 214.062 106.531C214.394 104.086 213.854 104.93 212.501 103.304L212.371 103.146C214.145 103.606 220.54 103.394 222.779 103.408L227.694 103.407C230.3 103.396 236.477 103.199 238.826 103.427C238.52 103.988 237.99 105.114 237.308 105.198C232.421 105.796 226.881 105.223 221.908 105.43C220.674 105.481 218.814 105.245 217.842 105.483C217.564 106.15 218.391 107.268 218.458 108.136L218.652 109.749C222.097 110.467 221.893 112.814 221.22 115.724C220.401 119.272 219.296 121.251 216.422 123.553L215.948 124.135C213.584 126.66 211.938 128.305 209.405 130.669C206.894 132.885 203.697 134.9 200.845 136.699C201.635 136.948 204.859 136.215 205.945 136.24C209.255 136.315 222.598 135.6 219.219 141.89C225.667 144.248 229.977 147.659 232.925 154.049C235.729 160.235 235.982 167.275 233.628 173.645C231.447 179.436 227.053 184.122 221.416 186.669C209.37 192.165 193.762 187.816 187.769 175.562C183.101 175.865 179.102 174.868 174.411 176.22C172.334 176.817 168.212 176.324 166.063 176.343C162.042 176.368 156.902 174.22 153.106 174.222C144.488 174.226 135.689 174.662 127.074 174.452C122.017 174.33 115.406 175.479 111.484 172.021C110.142 170.84 109.167 169.339 108.071 167.943C105.284 164.83 103.876 162.547 102.326 158.697C103.272 166.615 102.891 173.149 97.6464 179.655C84.1329 196.421 56.0717 189.497 53.823 167.406C53.002 159.29 54.8582 153.78 59.8681 147.544L59.9523 147.44C59.2176 147.39 58.4564 147.38 57.9014 146.864C56.6968 143.978 64.5326 139.838 66.5083 138.695C72.9303 134.979 78.4634 134.196 85.7593 135.015C82.6246 131.285 81.6149 131.098 76.651 131.345C74.6313 131.446 71.3171 131.268 72.7175 128.24C73.6936 126.13 75.4203 124.21 76.8049 122.333C81.3062 116.231 86.0606 110.507 91.5405 105.266C92.4548 104.143 93.2602 102.784 94.0855 101.603C97.3774 96.8964 101.502 93.9865 106.786 91.8223C105.878 91.3823 103.091 90.487 102.128 90.256C101.53 90.1496 100.342 89.7063 100.282 89.2012C100.032 87.0946 102.354 82.5727 102.966 80.6813C103.536 78.9187 105.319 74.0365 106.594 73.6595C108.591 73.0688 113.093 75.1415 114.979 75.9647C115.128 75.8432 116.686 74.0244 116.876 73.8048C118.307 72.1532 119.683 70.584 121.199 69.0072L122.445 69.998C120.803 71.4644 118.149 74.7323 116.271 76.6138C117.869 77.4701 120.196 78.6632 121.406 80.0074C121.782 80.4009 121.916 80.5824 122.397 80.8545C125.792 80.0102 128.429 81.8785 131.601 82.8315C133.113 83.2856 134.792 83.6972 136.344 83.9672C137.489 83.3709 140.598 84.002 141.98 84.1892C144.643 84.5384 147.302 84.9107 149.959 85.3058C149.735 84.1277 149.561 82.9139 149.423 81.7203C148.691 75.4036 147.471 69.1156 146.9 62.7887C146.719 60.7808 148.396 59.2961 149.68 57.9852L149.782 57.9024L149.569 57.7247C150.794 57.561 153.75 54.9405 154.839 54.0471ZM133.918 152.208C132.821 151.915 130.313 152.452 129.76 151.723C129.144 150.913 128.282 146.776 128.009 145.678L125.204 134.244L122.843 124.74C121.252 118.337 119.094 111.553 127.535 109.007C129.735 108.344 131.568 107.909 133.885 107.717C134.4 107.478 139.597 106.753 140.631 106.586C145.9 105.74 151.16 104.842 156.412 103.893C154.539 102.551 154.164 100.222 153.841 98.0959L141.882 95.973C139.585 95.5718 137.252 95.2555 134.989 94.7044C132.689 94.1443 133.195 91.9274 133.465 90.1973C132.078 89.7845 131.233 89.5944 129.791 89.6505C128.91 90.9537 127.191 90.4916 125.892 90.2462C124.531 90.2975 123.918 90.2789 122.608 89.9152L122.548 90.0417C122.104 90.9955 121.754 92.2435 121.381 93.2601C120.801 94.8124 120.158 96.34 119.451 97.839C115.53 106.268 111.32 114.052 107.177 122.279C108.243 129.163 106.893 130.867 104.119 137.014C105.586 140.194 106.81 143.48 107.783 146.844C109.727 153.419 109.873 158.096 116.429 161.747C116.683 157.182 119.575 157.369 123.277 156.863C125.849 153.931 129.91 153.522 133.445 152.884C133.742 152.831 133.813 152.466 133.918 152.208ZM144.809 150.518C145.212 153.333 145.696 156.293 146.039 159.103C152.697 155.541 155.656 138.715 154.031 131.678C153.174 127.975 149.417 123.402 152.213 120.14C149.071 120.597 144.617 120.982 141.706 121.929C140.969 122.169 142.256 130.583 142.395 131.642L144.362 146.001C144.484 146.828 145.141 149.991 144.809 150.518ZM68.5585 176.792C68.8276 176.399 69.2237 175.785 69.5028 175.426C69.91 174.762 70.1904 174.327 70.6638 173.713C71.1457 172.972 71.6163 172.223 72.0753 171.467C71.0118 170.458 70.1979 169.214 69.6982 167.835C68.9399 165.746 68.9581 163.223 69.9146 161.205C68.6745 160.241 65.6127 158.941 64.0282 158.149C61.3842 164.56 62.4524 172.74 68.5585 176.792ZM64.6077 157.094C65.0299 157.281 65.664 157.538 66.0477 157.758C67.4246 158.383 69.3625 159.215 70.6777 159.931C73.5888 155.867 76.868 155.59 81.4387 156.281L81.5455 156.177C80.4052 154.201 76.8328 150.9 75.1068 149.127C70.576 150.708 67.133 152.784 64.6077 157.094ZM219.177 162.927C220.988 162.753 222.797 162.568 224.604 162.369L225.989 162.258C225.716 161.433 225.567 160.549 225.256 159.726C222.73 153.06 218.175 150.545 211.63 149.486C207.111 152.069 206.559 153.253 210.739 157.12C217.533 158.102 218.639 162.868 219.177 162.927ZM214.397 179.345C213.783 177.918 212.809 174.3 212.187 172.527C210.204 173.029 204.91 172.287 202.682 172.085C200.696 171.913 198.708 171.774 196.716 171.671C197.443 174.133 200.595 176.867 202.805 178.038C206.688 180.092 210.238 180.048 214.397 179.345ZM82.1999 172.886C82.4997 174.57 83.0694 177.059 83.6227 178.662C88.4073 176.82 91.4082 173.805 93.1164 168.979C91.8426 168.41 88.6718 167.86 87.2657 167.74C86.7581 170.174 84.2799 171.884 82.1999 172.886ZM213.568 172.323C213.951 173.488 214.432 174.833 214.767 175.996C215.1 176.906 215.455 177.948 215.832 178.831C222.921 176.31 226.089 170.811 226.011 163.469C223.829 163.725 221.249 163.834 219.023 163.973C219.28 167.533 217.498 171.848 213.568 172.323ZM82.1697 179.101C81.8686 178.105 80.9384 174.406 80.8406 173.469C79.3723 173.364 77.5367 174.027 75.8995 173.422C74.9636 173.075 73.9866 172.477 73.0732 172.223C72.6719 173.278 70.4525 176.321 69.718 177.723C73.7691 179.872 77.7888 180.171 82.1697 179.101ZM87.9408 152.37C87.1987 154.009 85.7703 156.324 84.8641 157.992C88.8514 161.952 87.557 166.037 88.0887 166.661C88.8025 166.804 93.038 167.702 93.5107 167.707C93.9443 165.681 93.9973 163.593 93.667 161.548C93.0374 157.855 90.9804 154.559 87.9408 152.37Z" fill="#010101"/>
<path d="M64.0282 158.149C64.1988 157.651 64.3026 157.529 64.6077 157.094C65.0299 157.281 65.664 157.538 66.0477 157.758C67.4246 158.383 69.3625 159.215 70.6777 159.931C70.6112 160.073 70.4694 160.401 70.3968 160.519L69.9146 161.205C68.6745 160.241 65.6127 158.941 64.0282 158.149Z" fill="url(#paint0_linear_113_233)"/>
<path d="M70.3968 160.519C68.7697 159.464 67.6918 159.397 65.9036 157.917L66.0477 157.758C67.4246 158.383 69.3625 159.215 70.6777 159.931C70.6112 160.073 70.4694 160.401 70.3968 160.519Z" fill="#EBEAEA"/>
<path d="M80.8406 173.469C81.1931 173.408 81.8493 173.057 82.1999 172.886C82.4997 174.57 83.0694 177.059 83.6227 178.662C83.1467 178.895 82.6862 178.977 82.1697 179.101C81.8686 178.105 80.9384 174.406 80.8406 173.469Z" fill="#C2C1C2"/>
<path d="M88.0887 166.661C88.8025 166.804 93.0379 167.702 93.5107 167.707C93.3874 168.259 93.3317 168.458 93.1164 168.979C91.8425 168.41 88.6718 167.861 87.2656 167.74C87.2969 167.432 87.3175 167.429 87.452 167.144L88.1187 167.006L88.0887 166.661Z" fill="#C2C1C2"/>
<path d="M154.839 54.0471C158.364 51.8769 161.086 50.0196 164.171 47.1489C165.68 45.7443 168.583 41.7637 170.105 41.0031C175.496 38.3099 182.989 45.626 181.458 51.2163C180.471 55.097 175.875 57.1445 172.242 58.003C181.166 65.2693 186.886 76.6549 189.742 87.6293C190.804 91.7129 192.396 99.2044 188.344 102.058C182.336 104.889 163.311 104.372 156.412 103.893C154.539 102.551 154.164 100.222 153.841 98.0959L141.882 95.973C139.585 95.5718 137.251 95.2555 134.989 94.7044C132.689 94.1443 133.195 91.9274 133.465 90.1973C134.51 88.6196 134.236 86.4191 136.344 83.9672C137.489 83.3709 140.598 84.002 141.98 84.1892C144.643 84.5384 147.302 84.9107 149.959 85.3058C149.735 84.1278 149.561 82.9139 149.423 81.7203C148.691 75.4036 147.471 69.1156 146.9 62.7887C146.719 60.7808 148.396 59.2961 149.68 57.9852L149.782 57.9024L149.569 57.7247C150.794 57.561 153.75 54.9405 154.839 54.0471Z" fill="#8F1723"/>
<path d="M156.184 75.6965C156.407 75.8722 156.561 76.0417 156.834 76.0716C157.673 77.9748 158.378 84.4776 159.099 86.7348C158.144 86.6265 150.401 85.4821 150.336 85.4152C150.597 85.2107 151.031 84.9448 151.151 84.6283C151.17 84.5757 151.179 84.5177 151.208 84.4696C151.523 83.9513 156.668 84.4078 157.614 84.3541C157.116 81.5083 156.211 78.6155 156.184 75.6965Z" fill="#FF7E80"/>
<path d="M156.184 75.6966C156.028 74.618 155.58 72.4356 155.562 71.5129C155.944 72.616 156.578 74.9156 156.834 76.0717C156.561 76.0418 156.407 75.8723 156.184 75.6966Z" fill="#FF7E80"/>
<path d="M215.2 107.604C216.454 107.57 217.462 107.369 218.458 108.136L218.652 109.749C222.097 110.467 221.893 112.814 221.22 115.724C220.401 119.272 219.296 121.251 216.422 123.553L215.948 124.135C213.584 126.66 211.938 128.305 209.405 130.669C206.894 132.885 203.697 134.9 200.845 136.699C198.175 137.878 195.369 139.912 192.783 141.362C185.614 145.381 176.918 148.769 171.329 154.912C168.729 157.769 167.424 162.203 164.788 164.654C160.123 168.992 138.694 170.492 131.988 171.12C126.792 171.606 121.423 172.35 116.207 172.172C114.445 171.123 110.621 168.093 110.699 165.589C110.858 164.574 112.027 164.51 112.745 164.534C123.959 164.896 135.183 164.895 146.149 162.138C148.518 161.542 151.491 160.956 153.59 159.605C154.017 158.262 154.268 156.389 154.603 154.953C155.348 151.752 156.481 147.397 157.925 144.425C163.281 133.821 174.359 124.174 184.697 118.673C192.423 114.562 201.638 112.233 210.131 110.559C212.469 110.099 213.569 109.212 215.2 107.604Z" fill="#D33D4C"/>
<path d="M218.652 109.75C222.097 110.467 221.893 112.814 221.22 115.724C220.401 119.272 219.296 121.251 216.422 123.553C216.443 123.028 217.555 119.383 217.726 118.499C218.323 115.411 218.607 112.883 218.652 109.75Z" fill="#DA4A4D"/>
<path d="M156.412 103.893C163.311 104.372 182.336 104.889 188.344 102.058C188.695 102.863 188.879 103.234 189.047 104.089C189.269 105.835 188.264 108.545 187.217 109.929C183.319 115.08 166.305 117.812 159.678 118.893C157.671 119.22 153.966 119.559 152.213 120.14C149.071 120.598 144.617 120.982 141.706 121.929C140.969 122.169 142.256 130.583 142.395 131.642L144.362 146.001C144.484 146.828 145.141 149.991 144.809 150.519C142.785 151.153 136.169 152.076 134.072 151.88L133.918 152.208C132.821 151.915 130.313 152.452 129.76 151.723C129.144 150.913 128.282 146.776 128.009 145.678L125.204 134.244L122.843 124.74C121.252 118.337 119.094 111.553 127.535 109.007C129.735 108.344 131.568 107.909 133.885 107.717C134.4 107.479 139.597 106.753 140.631 106.586C145.9 105.74 151.16 104.843 156.412 103.893Z" fill="#302F2F"/>
<path d="M133.918 152.208C132.821 151.915 130.313 152.452 129.76 151.723C129.144 150.913 128.282 146.776 128.009 145.678L125.204 134.244L122.843 124.74C121.252 118.337 119.094 111.553 127.535 109.007C129.735 108.344 131.568 107.909 133.885 107.717C132.92 108.041 132.114 108.13 131.193 108.553C128.261 109.898 126.91 113.235 127.072 116.338C127.281 120.357 128.361 124.553 129.112 128.517C130.457 135.611 131.784 142.715 133.823 149.648C133.894 149.888 133.65 150.443 133.554 150.673C133.754 151.711 133.937 151.042 134.072 151.88L133.918 152.208Z" fill="#010101"/>
<path d="M106.786 91.8225C109.43 92.9994 113.653 95.1505 114.751 97.9868C115.633 100.267 114.313 103.159 113.351 105.252C110.735 110.945 106.79 115.157 102.536 119.639C100.998 121.26 99.1818 122.714 98.1582 124.739C96.7734 127.479 99.1445 130.417 98.7071 133.188C98.4014 135.125 94.2123 143.704 93.082 145.843C91.2119 142.876 89.8051 140.32 87.7795 137.28C88.0735 138.766 88.662 140.496 88.5404 141.998C88.3739 144.057 82.8328 153.699 81.5455 156.177C80.4052 154.201 76.8328 150.901 75.1068 149.127L74.3679 148.458C73.9948 148.191 73.6165 147.888 73.2516 147.606C72.9756 147.427 72.161 147.109 71.8608 147.158C68.9308 147.637 62.5298 146.772 59.9523 147.44C59.2176 147.39 58.4564 147.38 57.9014 146.865C56.6968 143.978 64.5326 139.838 66.5083 138.695C72.9303 134.979 78.4634 134.197 85.7593 135.015C82.6246 131.285 81.6149 131.098 76.651 131.346C74.6314 131.446 71.3172 131.268 72.7175 128.241C73.6936 126.13 75.4203 124.21 76.8049 122.333C81.3062 116.231 86.0606 110.507 91.5405 105.266C92.4548 104.143 93.2602 102.784 94.0855 101.604C97.3774 96.8966 101.502 93.9866 106.786 91.8225Z" fill="#FF7E80"/>
<path d="M121.199 69.0073L122.445 69.9981C120.803 71.4645 118.149 74.7325 116.271 76.6139C117.869 77.4702 120.196 78.6634 121.406 80.0076L121.419 80.4964C119.532 82.2149 112.226 83.1112 115.63 87.6429C112.1 88.5473 105.578 90.4707 102.128 90.2561C101.53 90.1497 100.342 89.7065 100.282 89.2014C100.032 87.0947 102.354 82.5728 102.966 80.6814C103.536 78.9189 105.319 74.0366 106.594 73.6596C108.591 73.0689 113.093 75.1416 114.979 75.9648C115.128 75.8434 116.686 74.0245 116.876 73.8049C118.307 72.1533 119.683 70.5841 121.199 69.0073Z" fill="#FF7E80"/>
<path d="M121.199 69.0073L122.445 69.9981C120.803 71.4645 118.149 74.7325 116.271 76.6139C115.448 77.6113 113.009 80.0974 111.82 80.4854C111.821 79.6312 114.537 77.1187 114.979 75.9648C115.128 75.8434 116.686 74.0245 116.876 73.8049C118.307 72.1533 119.683 70.5841 121.199 69.0073Z" fill="#010101"/>
<path d="M134.072 151.88C136.169 152.076 142.785 151.153 144.809 150.518C145.212 153.333 145.696 156.293 146.039 159.103C144.004 160.478 133.328 160.965 130.502 161.152C126.691 161.403 120.174 162.151 116.429 161.747C116.683 157.182 119.575 157.369 123.276 156.863C125.849 153.931 129.91 153.522 133.445 152.884C133.742 152.831 133.813 152.466 133.918 152.208L134.072 151.88Z" fill="#8F1723"/>
<path d="M135.067 152.98C135.788 153.966 134.879 154.99 134.073 155.544C133.881 155.359 133.95 155.437 133.86 155.155C134.649 154.248 134.774 154.154 135.067 152.98Z" fill="#010101"/>
<path d="M133.051 153.927C133.054 155.027 130.788 155.405 129.899 155.495C129.919 155.027 132.014 155.031 133.051 153.927Z" fill="#FF7E80"/>
<path d="M125.204 156.341C126.125 156.57 126.87 156.177 127.993 156.447C127.459 156.634 125.6 156.972 125.137 156.7L125.204 156.341Z" fill="#FF7E80"/>
<path d="M70.6777 159.932C73.5888 155.867 76.868 155.59 81.4387 156.281L80.9121 157.318L80.6849 157.76C80.0965 158.816 79.8709 159.252 79.4441 160.41L79.2882 160.365C78.202 160.057 77.2737 160.165 76.2767 160.718C75.19 161.325 74.3943 162.345 74.0702 163.547C73.2965 166.404 75.4579 169.5 78.5219 168.858C80.2422 168.496 81.8969 168.134 82.3571 166.175C82.7734 164.69 82.0887 163.129 82.3942 161.857C82.6235 161.829 82.7554 161.804 82.9608 161.696L84.1593 159.351L84.4193 158.896L84.8641 157.992C88.8514 161.952 87.557 166.038 88.0887 166.661L88.1187 167.006L87.452 167.144C87.3175 167.429 87.2969 167.432 87.2656 167.74C86.7581 170.174 84.2799 171.884 82.1999 172.886C81.8492 173.057 81.1931 173.408 80.8406 173.469C79.3723 173.365 77.5367 174.027 75.8995 173.422C74.9636 173.075 73.9866 172.477 73.0732 172.224C72.6719 173.279 70.4524 176.321 69.718 177.723C69.3435 177.519 69.3335 177.489 69.0616 177.15C69.0339 176.505 69.2448 176.375 69.5955 175.734L69.5028 175.426C69.91 174.762 70.1904 174.327 70.6638 173.713C71.1457 172.972 71.6163 172.224 72.0753 171.468C71.0118 170.458 70.1979 169.214 69.6982 167.835C68.9399 165.746 68.9581 163.223 69.9146 161.205L70.3968 160.519C70.4693 160.401 70.6112 160.073 70.6777 159.932Z" fill="#302F2F"/>
<path d="M70.6777 159.932C73.5888 155.867 76.868 155.59 81.4387 156.281L80.9121 157.318L80.6849 157.76C78.1729 157.351 75.601 157.952 73.5295 159.431C68.3362 163.196 71.4119 170.669 77.1347 171.659C81.4791 172.409 85.6262 169.697 86.1632 165.251C86.5093 162.831 84.7538 161.527 84.1593 159.351L84.4193 158.896L84.8641 157.992C88.8514 161.952 87.557 166.038 88.0887 166.661L88.1187 167.006L87.452 167.144C87.3175 167.429 87.2969 167.432 87.2656 167.74C86.7581 170.174 84.2799 171.884 82.1999 172.886C81.8492 173.057 81.1931 173.408 80.8406 173.469C79.3723 173.365 77.5367 174.027 75.8995 173.422C74.9636 173.075 73.9866 172.477 73.0732 172.224C72.6719 173.279 70.4524 176.321 69.718 177.723C69.3435 177.519 69.3335 177.489 69.0616 177.15C69.0339 176.505 69.2448 176.375 69.5955 175.734L69.5028 175.426C69.91 174.762 70.1904 174.327 70.6638 173.713C71.1457 172.972 71.6163 172.224 72.0753 171.468C71.0118 170.458 70.1979 169.214 69.6982 167.835C68.9399 165.746 68.9581 163.223 69.9146 161.205L70.3968 160.519C70.4693 160.401 70.6112 160.073 70.6777 159.932Z" fill="#EBEAEA"/>
<path d="M84.4193 158.896C86.9382 161.299 87.7815 164.55 86.3844 167.802C85.5283 169.752 83.9391 171.286 81.9607 172.073C79.7196 172.963 76.8352 172.939 74.6265 171.952C72.7675 171.143 71.3096 169.622 70.5775 167.731C69.8408 165.796 69.9165 163.451 70.7661 161.564C71.6743 159.557 73.3538 158 75.4248 157.247C77.0686 156.648 79.1577 156.485 80.7738 157.251L80.9121 157.318L80.6849 157.76C78.1729 157.351 75.601 157.952 73.5295 159.43C68.3362 163.196 71.4119 170.669 77.1347 171.659C81.4791 172.409 85.6262 169.697 86.1632 165.251C86.5093 162.831 84.7538 161.527 84.1593 159.35L84.4193 158.896Z" fill="#676666"/>
<path d="M70.6638 173.713L70.8396 173.912C71.5273 173.552 71.7259 172.225 72.4852 171.712C72.937 171.83 72.7748 171.73 73.0732 172.224C72.6719 173.278 70.4524 176.321 69.718 177.723C69.3435 177.519 69.3335 177.489 69.0616 177.149C69.0339 176.505 69.2448 176.375 69.5955 175.734L69.5028 175.426C69.91 174.762 70.1904 174.327 70.6638 173.713Z" fill="#C2C1C2"/>
<path d="M73.2516 147.606C73.6165 147.888 73.9948 148.191 74.3679 148.458L75.1068 149.127C70.576 150.708 67.133 152.784 64.6077 157.094C64.3026 157.529 64.1988 157.651 64.0282 158.149C61.3842 164.56 62.4524 172.74 68.5585 176.792C68.8277 176.399 69.2237 175.785 69.5028 175.426L69.5955 175.734C69.2448 176.375 69.0339 176.505 69.0617 177.149C69.3336 177.489 69.3435 177.519 69.718 177.723C73.7691 179.872 77.7888 180.171 82.1697 179.101C82.6862 178.977 83.1467 178.895 83.6227 178.662C88.4074 176.82 91.4082 173.805 93.1164 168.979C93.3317 168.458 93.3874 168.259 93.5107 167.707C93.9443 165.681 93.9973 163.593 93.667 161.548C93.0374 157.855 90.9804 154.559 87.9408 152.371L88.3111 151.467C88.4671 151.239 88.7612 150.635 88.9041 150.362C95.4866 154.803 97.7566 163.581 94.769 170.837C92.9591 175.177 89.4837 178.609 85.1218 180.364C80.6216 182.225 74.9883 182.336 70.4879 180.426C66.5056 178.728 63.3642 175.513 61.759 171.492C60.093 167.243 59.9893 161.797 61.8706 157.631C64.285 152.288 68.0615 149.643 73.2516 147.606Z" fill="#B1B0B0"/>
<path d="M88.3111 151.467C94.5567 155.366 96.3773 164.19 93.4901 170.797C89.8173 179.202 79.0005 182.975 70.6999 179.237C66.9982 177.59 64.125 174.509 62.7399 170.699C61.2343 166.601 61.2399 161.417 63.1872 157.521C65.686 152.525 69.42 150.281 74.3679 148.458L75.1067 149.127C70.576 150.708 67.1329 152.784 64.6077 157.094C64.3026 157.529 64.1988 157.651 64.0282 158.149C61.3842 164.56 62.4524 172.74 68.5584 176.792C68.8276 176.399 69.2237 175.785 69.5028 175.426L69.5954 175.734C69.2448 176.375 69.0339 176.505 69.0616 177.15C69.3335 177.489 69.3435 177.519 69.718 177.723C73.769 179.872 77.7888 180.171 82.1697 179.101C82.6861 178.977 83.1466 178.896 83.6226 178.662C88.4073 176.821 91.4081 173.805 93.1164 168.979C93.3317 168.458 93.3874 168.259 93.5106 167.707C93.9443 165.681 93.9972 163.593 93.667 161.548C93.0373 157.855 90.9804 154.559 87.9408 152.371L88.3111 151.467Z" fill="#EBEAEA"/>
<path d="M122.397 80.8546C125.792 80.0103 128.43 81.8786 131.601 82.8316C133.113 83.2857 134.792 83.6973 136.344 83.9673C134.236 86.4192 134.51 88.6197 133.465 90.1974C132.078 89.7846 131.233 89.5945 129.791 89.6506C128.91 90.9538 127.191 90.4917 125.892 90.2463C124.531 90.2976 123.918 90.279 122.608 89.9153C120.986 87.8808 117.638 86.4411 119.971 82.8484C120.709 81.7123 121.337 81.6148 122.397 80.8546Z" fill="#FF7E80"/>
<path d="M125.538 85.8391C127.48 86.6995 128.216 86.7654 130.28 87.0632C130.168 87.8522 129.945 88.8517 129.791 89.6506C128.91 90.9538 127.191 90.4917 125.892 90.2463C125.642 89.4446 125.583 86.7953 125.538 85.8391Z" fill="#010101"/>
<path d="M180.22 156.388C187.212 155.958 194.423 156.753 201.345 157.666C201.899 157.739 202.406 157.82 202.741 158.267C201.509 159.62 190.32 159.381 187.965 159.977C183.961 160.986 183.021 163.069 183.908 167.112C185.116 170.585 190.285 170.201 193.333 170.9C189.441 171.003 179.145 170.48 175.425 168.758C174.514 168.186 173.868 166.981 173.736 165.982C173.032 160.718 174.967 157.352 180.22 156.388Z" fill="#302F2F"/>
<path d="M213.792 147.703C216.63 148.291 218.67 148.931 221.084 150.684C226.706 154.764 229.257 161.481 227.838 168.291C226.964 172.658 224.371 176.49 220.641 178.924C212.199 184.404 200.144 182.235 195.076 173.441C194.727 172.836 194.503 172.489 194.385 171.787L194.475 171.504C194.928 171.377 195.023 171.43 195.501 171.525C195.776 171.549 196.502 171.585 196.716 171.671C197.443 174.133 200.595 176.867 202.805 178.038C206.688 180.092 210.238 180.048 214.397 179.345L215.832 178.831C222.921 176.31 226.089 170.811 226.011 163.469L226.109 163.015L225.989 162.259C225.716 161.433 225.567 160.549 225.256 159.726C222.73 153.06 218.175 150.545 211.63 149.486C211.921 149.223 212.273 148.967 212.587 148.725L213.792 147.703Z" fill="#B1B0B0"/>
<path d="M212.587 148.725C217.398 149.418 220.944 151.154 223.945 155.172C226.456 158.563 227.506 162.817 226.862 166.987C226.241 171.232 223.948 175.053 220.491 177.596C216.694 180.338 211.719 181.221 207.145 180.447C203.026 179.748 199.353 177.441 196.938 174.032C196.39 173.238 195.91 172.399 195.501 171.525C195.776 171.549 196.502 171.585 196.716 171.671C197.443 174.133 200.595 176.867 202.805 178.038C206.688 180.092 210.238 180.049 214.397 179.345L215.832 178.831C222.921 176.31 226.089 170.811 226.011 163.469L226.109 163.015L225.989 162.259C225.716 161.433 225.567 160.549 225.256 159.726C222.73 153.06 218.175 150.545 211.63 149.486C211.921 149.223 212.273 148.968 212.587 148.725Z" fill="#EBEAEA"/>
<path d="M206.95 157.773C208.097 157.642 209.385 158.051 210.348 158.664C211.802 159.593 212.831 161.06 213.211 162.746C214.123 166.904 211.055 170.751 207.024 171.608C205.493 171.614 203.765 171.375 202.529 170.281C198.465 166.688 200.311 160.034 205.028 158.025C205.361 157.884 206.523 157.808 206.95 157.773Z" fill="#302F2F"/>
<path d="M212.68 172.418L213.568 172.323C213.951 173.488 214.432 174.833 214.767 175.997C215.1 176.907 215.455 177.948 215.832 178.831L214.397 179.345C213.783 177.918 212.809 174.3 212.187 172.527L212.68 172.418Z" fill="#C2C1C2"/>
<path d="M212.68 172.418L213.568 172.323C213.951 173.488 214.432 174.833 214.767 175.997C213.242 174.94 213.747 173.251 212.68 172.418Z" fill="#EBEAEA"/>
<path d="M225.989 162.259L226.109 163.015L226.011 163.469C223.829 163.725 221.249 163.834 219.023 163.973C218.901 163.544 218.898 163.522 218.922 163.081L219.177 162.927C220.988 162.754 222.797 162.568 224.604 162.369L225.989 162.259Z" fill="#C2C1C2"/>
<path d="M225.989 162.259L226.109 163.015C225.59 163.043 224.963 163.123 224.431 163.169L224.229 162.983L224.604 162.369L225.989 162.259Z" fill="#B1B0B0"/>
<path d="M212.045 64.5411C212.211 63.4877 211.73 62.168 212.407 60.9985C213.767 59.8452 220.694 60.3193 222.797 60.335L227.72 60.3226C235.549 60.3756 243.378 60.384 251.207 60.3476L256.194 60.3348C258.585 60.3561 260.975 60.3565 263.365 60.3359C265.707 60.3273 269.28 59.5571 269.192 62.7551C269.417 64.6806 269.302 69.9702 269.283 72.1865C269.234 77.4053 269.378 82.8789 269.266 88.0692L269.272 96.8691C269.271 98.2458 269.393 99.7394 269.219 101.099C269.148 101.648 268.958 102.395 268.555 102.788C267.365 103.95 258.303 103.37 256.203 103.423L251.304 103.435C247.467 103.277 242.757 103.439 238.826 103.427C236.477 103.199 230.3 103.396 227.694 103.407L222.779 103.408C220.54 103.394 214.145 103.606 212.371 103.146C211.78 101.713 212.068 91.4755 212.069 89.259C212.02 82.683 212.024 76.1067 212.086 69.5307C211.952 68.7087 212.033 65.5438 212.045 64.5411Z" fill="#FF7E80"/>
<path d="M227.708 69.4035C235.469 69.4156 243.499 69.5081 251.251 69.4014L251.262 91.6783C251.259 95.1044 251.091 100.151 251.304 103.435C247.467 103.277 242.757 103.439 238.826 103.427C236.477 103.199 230.3 103.396 227.694 103.407C227.86 92.2141 227.722 80.6247 227.708 69.4035Z" fill="#8F1723"/>
<path d="M256.283 69.399C259.952 69.4126 265.618 69.5912 269.121 69.3074L269.117 82.0092C269.117 83.3083 269.038 86.9865 269.266 88.0692L269.272 96.8691C269.271 98.2458 269.393 99.7394 269.219 101.099C269.148 101.648 268.958 102.395 268.555 102.788C267.365 103.95 258.303 103.37 256.203 103.423C256.468 100.274 256.31 94.7519 256.31 91.481L256.283 69.399Z" fill="#8F1723"/>
<path d="M212.086 69.5309C212.782 69.1206 221.409 69.4129 222.804 69.4034C222.818 80.4733 223.053 92.4191 222.779 103.408C220.54 103.394 214.145 103.606 212.371 103.147C211.78 101.713 212.068 91.4757 212.069 89.2592C212.02 82.6832 212.024 76.1069 212.086 69.5309Z" fill="#8F1723"/>
<path d="M227.72 60.3228C235.549 60.3757 243.378 60.3842 251.207 60.3478C251.323 61.0028 251.254 65.3375 251.256 66.3026L227.706 66.3108C227.687 64.3148 227.691 62.3186 227.72 60.3228Z" fill="#8F1723"/>
<path d="M256.194 60.3348C258.585 60.3561 260.975 60.3566 263.365 60.3359C265.707 60.3273 269.28 59.5572 269.192 62.7551C269.096 63.5911 269.123 65.3662 269.115 66.285C265.814 66.4863 259.776 66.3023 256.29 66.294C256.303 64.231 256.298 62.4031 256.194 60.3348Z" fill="#8F1723"/>
<path d="M212.045 64.5411C212.211 63.4877 211.73 62.168 212.407 60.9985C213.767 59.8452 220.694 60.3193 222.797 60.335C222.825 62.3284 222.833 64.322 222.819 66.3156C219.304 66.3022 215.705 66.3461 212.204 66.2993C212.187 65.7418 212.213 65.0556 212.045 64.5411Z" fill="#8F1723"/>
<path d="M251.233 66.3082C252.859 66.2495 254.684 66.2896 256.325 66.2913L256.268 69.4024L251.29 69.41L251.233 66.3082Z" fill="#FF7E80"/>
<path d="M222.832 66.2859L227.7 66.2916L227.697 69.4156C226.074 69.4221 224.451 69.4177 222.829 69.4021L222.832 66.2859Z" fill="#FF7E80"/>
<path d="M132.637 40.8672C133.639 38.8041 134.32 36.6907 135.296 34.6783C140.758 23.4128 159.416 22.6617 163.791 35.3019C164.552 37.5033 164.633 41.3319 163.651 43.4894C162.657 47.4428 158.678 52.1942 154.637 53.2215L154.839 54.0472C153.75 54.9406 150.794 57.5611 149.569 57.7248L149.782 57.9025L149.68 57.9853C147.404 58.1732 145.125 58.3326 142.845 58.4634C140.833 58.7639 139.988 59.0997 138.13 58.3815C137.851 57.38 137.631 55.5506 137.329 54.2891C133.956 52.6035 134.28 51.9445 135.476 48.5428C135.621 48.1301 135.738 47.6951 135.911 47.273C136.206 47.5253 136.168 47.5841 136.476 47.5994C136.766 46.3677 135.837 46.6321 135.694 45.8911C135.612 45.4673 135.573 44.2318 135.549 43.7414C135.506 42.5972 128.843 43.5406 127.633 42.1702L127.709 41.9404C128.964 41.0885 131.128 40.9954 132.637 40.8672Z" fill="#8F1723"/>
<path d="M132.637 40.8673C135.216 40.3842 145.382 40.2529 147.563 40.8581C148.056 41.3088 148.56 45.138 148.792 46.0434C150.295 51.9031 154.687 53.7998 159.129 49.2137C160.478 47.8219 161.395 45.6486 162.625 44.3115L162.863 44.7589C163.144 44.2402 163.287 43.9712 163.651 43.4894C162.657 47.4428 158.678 52.1942 154.637 53.2215L154.839 54.0472C153.75 54.9406 150.794 57.5611 149.569 57.7249L149.782 57.9025L149.68 57.9853C147.404 58.1732 145.125 58.3326 142.845 58.4634C140.833 58.7639 139.988 59.0997 138.13 58.3815C137.851 57.38 137.631 55.5506 137.329 54.2891C133.956 52.6035 134.28 51.9445 135.476 48.5428C135.621 48.1301 135.879 48.0789 136.052 47.6568C136.052 47.2725 136.052 47.2725 136.052 46.8881C135.668 46.1195 135.837 46.6321 135.694 45.8911C135.612 45.4673 135.573 44.2318 135.549 43.7415C135.506 42.5972 128.843 43.5406 127.633 42.1703L127.709 41.9404C128.964 41.0885 131.128 40.9954 132.637 40.8673Z" fill="#010101"/>
<path d="M135.549 43.7413L135.649 43.3254C136.41 43.1309 137.127 43.6724 137.698 43.594C140.242 43.2445 142.098 42.8162 144.707 42.85C144.654 44.4402 144.621 46.169 144.829 47.7477C145.395 52.0408 146.152 54.8842 142.845 58.4633C140.833 58.7638 139.988 59.0996 138.13 58.3814C137.851 57.3799 137.631 55.5505 137.329 54.289C133.956 52.6034 134.28 51.9444 135.476 48.5427C135.291 49.0683 135.621 48.13 135.476 48.5427C135.858 47.456 135.854 46.6758 135.808 46.5036C135.694 45.891 135.837 46.632 135.694 45.891C135.612 45.4672 135.573 44.2317 135.549 43.7413Z" fill="#FF7E80"/>
<path d="M138.959 44.4482C139.97 45.0003 139.876 46.1871 139.495 47.1022C138.436 46.5783 138.446 45.3823 138.959 44.4482Z" fill="#010101"/>
<path d="M146.357 57.8928C148.289 52.5172 145.483 47.228 146.317 42.6328C146.531 43.0548 146.639 44.2082 146.707 44.7416C147.183 48.4619 149.562 54.601 154.474 53.2668L154.637 53.2215L154.839 54.0472C153.75 54.9406 150.794 57.5611 149.569 57.7248C148.498 57.7608 147.427 57.8167 146.357 57.8928Z" fill="#FF7E80"/>
<path d="M135.697 41.2578C136.699 41.3743 138.895 41.3019 139.728 41.5489L139.531 41.6398C138.597 41.8097 136.401 42.4082 135.675 41.8811L135.697 41.2578Z" fill="#EBEAEA"/>
<path d="M215.948 124.135C216.255 124.452 217.201 125.45 217.513 125.59C221.634 127.438 226.03 126.083 228.989 130.453C232.337 135.396 235.345 140.942 238.656 145.953C239.191 146.767 240.308 148.583 239.852 149.559C237.323 150.863 225.519 134.775 223.488 132.625C222.466 131.544 221.757 131.226 220.224 131.136C216.653 131.06 212.967 130.664 209.405 130.669C211.938 128.305 213.584 126.66 215.948 124.135Z" fill="#010101"/>
<path d="M121.199 69.0073C119.803 67.064 120.215 64.7278 122.222 63.4009C123.324 62.6749 124.672 62.4239 125.961 62.7049C128.414 63.2171 129.599 64.8608 129.149 67.4164C128.617 70.4446 124.933 71.3981 122.445 69.9981L121.199 69.0073Z" fill="#FF7E80"/>
<defs>
<linearGradient id="paint0_linear_113_233" x1="65.7087" y1="158.68" x2="66.0676" y2="157.992" gradientUnits="userSpaceOnUse">
<stop stop-color="#A7A6A7"/>
<stop offset="1" stop-color="#C5C5C5"/>
</linearGradient>
</defs>
</svg>
