<svg version="1.1" xmlns="http://www.w3.org/2000/svg" style="display: block;" viewBox="0 0 1664 1528" width="416" height="382" preserveAspectRatio="none">
<path transform="translate(0,0)" fill="rgb(0,0,0)" d="M 809.889 7.63741 C 911.84 -1.55428 1032.02 41.6475 1109.26 107.608 C 1125.45 121.432 1143.29 141.651 1158.38 156.962 C 1168.84 167.578 1181.86 187.708 1189.86 200.306 C 1183.33 207.353 1172.17 214.964 1164.55 221.981 C 1142.82 241.723 1122.79 263.257 1104.67 286.356 C 1101.35 290.61 1089.82 305.27 1090.34 309.465 C 1098.65 306.36 1110.42 297.013 1118.65 292.182 C 1143.35 277.564 1169.56 264.793 1196.34 254.428 C 1333.28 201.425 1488.79 234.822 1583.02 350.282 C 1628.08 406.394 1653.69 475.628 1655.99 547.556 C 1656.68 578.751 1655.94 604.539 1648.89 635.641 C 1626.44 734.541 1565.83 814.8 1476.69 862.763 C 1444.53 880.92 1401.13 888.046 1375.62 916.166 C 1336.18 959.634 1339.28 1023.13 1339.69 1077.67 C 1339.89 1104.18 1339.07 1130.5 1339.95 1156.69 C 1327.64 1149.32 1302.11 1141.5 1288.14 1137.45 C 1181.62 1106.61 1069.24 1096.06 958.938 1089.2 C 921.867 1086.9 882.887 1087.61 845.508 1087.2 C 694.846 1086.05 532.238 1095.64 385.734 1133.64 C 370.973 1137.47 337.367 1147.61 324.567 1155.4 C 325.321 1129.68 324.146 1103.02 324.433 1077.32 C 324.806 1025.87 327.401 975.689 298.495 930.404 C 271.501 888.115 224.135 882.957 182.201 859.728 C 136.863 834.566 97.7775 799.511 67.847 757.17 C 16.3393 683.176 -3.73749 591.783 12.0158 503.014 C 26.3705 417.336 74.1529 340.861 144.863 290.394 C 258.533 210.468 387.71 214.91 509.57 273.373 C 524.481 280.381 539.044 288.11 553.206 296.531 C 558.494 299.74 575.465 312.548 578.102 313.012 L 579.002 312.036 C 577.218 307.266 569.916 298.387 566.574 293.735 C 545.75 264.754 520.576 239.004 493.258 216.116 C 487.146 210.995 480.999 206.4 475.326 200.78 L 474.365 199.818 C 482.374 185.57 502.689 159.827 513.824 147.565 C 588.526 65.3097 698.313 11.8544 809.889 7.63741 z"/>
<path transform="translate(0,0)" fill="rgb(0,0,0)" d="M 810.995 1190.53 C 836.53 1189.63 862.65 1191.27 888.253 1191.67 C 1019.74 1193.77 1160.51 1205.35 1287.51 1241.16 C 1300.58 1244.84 1324.36 1250.84 1335.76 1257.87 C 1339.92 1260.43 1340.23 1282.71 1339.95 1288.94 C 1337.91 1325.5 1343.41 1371.97 1337.56 1407.33 C 1332.51 1437.83 1257.83 1463.7 1232.51 1471 C 1110.81 1506.08 980.538 1519.7 854.25 1520.36 C 825.563 1520.42 796.875 1520.31 768.189 1520.04 C 676.094 1518.39 402.691 1491.99 337.753 1423.93 C 332.247 1418.16 328.201 1412.96 326.237 1405.11 C 321.704 1386.99 324.188 1359.52 324.201 1340.19 C 324.221 1312.64 323.716 1284.96 324.493 1257.43 C 417.255 1220.97 526.902 1209.07 625.315 1198.7 C 686.852 1192.21 749.224 1192.26 810.995 1190.53 z"/>
</svg>