<svg version="1.1" xmlns="http://www.w3.org/2000/svg" style="display: block;" viewBox="0 0 2048 652" width="804" height="256" preserveAspectRatio="none">
<path transform="translate(0,0)" fill="rgb(255,255,255)" d="M 0 0 L 2048 0 L 2048 652 L 0 652 L 0 530.326 L 0 121.445 L 0 0 z"/>
<path transform="translate(0,0)" fill="rgb(0,0,0)" d="M 0 121.445 L 115.544 121.267 C 183.809 121.264 255.042 115.434 308.413 167.473 C 335.567 193.949 347.842 229.035 347.926 266.658 C 348.148 303.03 333.818 337.981 308.127 363.729 C 293.346 378.513 279.243 386.728 259.199 392.715 C 286.984 439.034 323.996 485.117 352.548 532.096 C 330.952 530.049 295.8 531.004 272.956 530.992 L 190.862 406.894 C 151.886 407.409 112.905 407.448 73.9285 407.011 C 73.9127 446.815 74.806 491.062 73.5895 530.63 C 49.9672 529.754 23.7379 529.964 0 530.326 L 0 121.445 z"/>
<path transform="translate(0,0)" fill="rgb(255,255,255)" d="M 73.8384 180.94 L 137.506 180.963 C 175.427 181.01 220.968 178.528 250.038 207.015 C 282.226 238.558 282.081 292.294 251.384 324.462 C 222.898 352.014 178.086 348.027 141.381 347.994 C 118.944 347.921 96.5068 347.986 74.0705 348.19 L 73.8384 180.94 z"/>
<path transform="translate(0,0)" fill="rgb(0,0,0)" d="M 1638.19 78.4224 C 1662.26 76.0266 1694.47 81.9826 1715.27 94.9049 C 1709.65 114.461 1703.06 130.254 1697.92 151.273 C 1683.33 140.776 1669.17 136.316 1651.28 136.668 C 1597.76 137.723 1601.74 175.432 1602.19 214.986 L 1763.67 215.046 C 1765.96 220.981 1770.89 230.66 1773.68 236.851 L 1795.82 286.27 L 1869.69 453.226 C 1879.87 432.329 1891.2 403.793 1900.61 381.972 L 1943.83 283.021 C 1953.05 261.346 1963.23 235.047 1973.8 214.271 C 1995.28 214.175 2023.46 214.838 2044.34 213.313 C 2039.2 228.448 2028.12 252.061 2021.48 267.264 L 1971.9 378.883 L 1921.27 493.586 C 1917.07 503.283 1912.69 513.257 1908.51 522.954 C 1879.11 591.087 1862.3 641.457 1778.92 647.854 C 1746.88 648.088 1708.29 640.733 1684.68 617.494 C 1688.12 609.649 1706.05 571.413 1709.24 566.344 C 1735.83 583.016 1766.79 598.23 1798.64 582.562 C 1818.51 572.785 1827.24 550.249 1833.62 530.235 C 1811.54 479.071 1783.74 423.8 1760.25 372.357 L 1721.45 287.572 C 1713.04 269.267 1704.29 248.996 1694.41 231.616 C 1693.93 244.816 1694.22 257.275 1694.61 270.428 C 1666.04 271.452 1631.56 271.146 1602.99 270.46 L 1602.52 391.649 C 1602.66 438.198 1603.35 483.823 1602.2 530.429 C 1578.6 530.192 1555 530.334 1531.41 530.855 C 1530.88 503.126 1531.87 471.99 1531.97 443.896 L 1531.9 270.348 L 1476.67 270.224 C 1476.38 252.099 1476.82 232.843 1476.93 214.634 C 1495.08 214.889 1513.57 214.724 1531.75 214.729 C 1531.8 179.193 1530.38 142.942 1555.48 114.894 C 1578.52 89.1562 1605.27 80.872 1638.19 78.4224 z"/>
<path transform="translate(0,0)" fill="rgb(0,0,0)" d="M 549.592 210.407 C 552.633 209.933 562.637 209.951 565.988 209.984 C 606.78 210.384 647.051 224.225 675.774 254.064 C 715.299 295.123 721.397 339.663 720.872 393.699 L 470.733 393.953 C 471.562 397.943 472.53 401.693 473.483 405.626 C 489.662 472.364 569.696 490.389 625.771 464.738 C 637.853 459.211 646.598 452.869 656.917 444.283 C 659.016 442.298 660.84 440.097 663.665 439.721 C 673.202 448.989 689.274 471.944 699.882 483.543 C 640.811 546.66 519.98 550.793 454.814 495.507 C 423.422 468.46 403.932 430.149 400.554 388.851 C 392.719 292.058 451.934 218.177 549.592 210.407 z"/>
<path transform="translate(0,0)" fill="rgb(255,255,255)" d="M 548.696 268.283 C 605.948 261.793 642.503 294.279 651.639 349.018 L 576.5 349.361 C 541.592 349.526 506.683 349.463 471.775 349.171 C 478.362 303.829 502.765 275.71 548.696 268.283 z"/>
<path transform="translate(0,0)" fill="rgb(0,0,0)" d="M 883.683 210.409 C 912.404 205.625 994.286 217.321 1016.48 237.17 C 1011.9 251.405 1001.4 275.398 995.626 289.72 C 962.571 274.818 935.737 266.347 898.47 266.005 C 879.578 266.311 858.685 268.507 844.624 282.357 C 830.649 296.122 831.194 319.029 848.519 329.499 C 860.596 336.798 876.856 339.758 890.622 342.545 C 907.196 345.648 923.991 348.864 940.473 352.284 C 986.601 361.853 1029.99 378.496 1029.21 434.378 C 1028.09 513.671 953.744 533.961 888.75 533.504 C 852.517 532.411 789.91 521.762 761.147 498.224 L 781.597 444.837 C 819.336 468.867 863.765 480.215 908.406 477.227 C 928.804 475.664 963.826 466.595 961.518 439.861 C 958.324 412.497 923.48 408.218 901.969 403.469 C 866.99 395.747 821.841 390.67 793.184 367.942 C 759.72 341.401 761.791 281.997 788.678 251.328 C 813.528 222.982 847.391 213.516 883.683 210.409 z"/>
<path transform="translate(0,0)" fill="rgb(0,0,0)" d="M 1104.97 135.028 L 1176.11 135.03 C 1176.35 161.599 1176.42 188.17 1176.33 214.74 L 1263 214.789 C 1263.26 233.423 1263.31 252.059 1263.15 270.694 L 1176.69 270.577 L 1176.74 374.889 C 1176.71 394.614 1176.13 414.507 1177.59 434.183 C 1179.67 462.318 1200.11 477.513 1227.61 474.863 C 1242.42 473.435 1252.41 467.801 1265.16 460.853 C 1269.11 470.847 1273.81 481.454 1278.01 491.422 C 1281 498.67 1283.24 503.219 1286.96 510.126 C 1246.64 540.955 1174.43 541.713 1135.34 507.677 C 1100.83 477.626 1106.52 429.703 1105.92 388.834 C 1105.35 349.823 1107.16 309.44 1105.36 270.248 C 1087.56 270.381 1069.75 270.385 1051.94 270.26 L 1051.95 215.875 C 1069.56 215.388 1087.18 215.157 1104.8 215.182 C 1105.03 188.465 1105.08 161.746 1104.97 135.028 z"/>
<path transform="translate(0,0)" fill="rgb(0,0,0)" d="M 1375.47 9.08917 C 1379.02 8.93853 1385.97 8.23734 1387.34 12.4066 C 1389.67 19.5302 1389.75 28.2104 1390.26 35.7774 C 1391.56 53.5807 1392.59 71.403 1393.35 89.2378 C 1393.86 101.456 1390.88 155.199 1414.67 132.53 C 1419.68 103.167 1413.82 44.8162 1420.08 13.5577 C 1420.46 11.68 1422.77 11.1791 1424.38 10.7851 C 1426.76 11.702 1428.37 12.1266 1429.33 15.1429 C 1439.79 47.9434 1449.23 111.387 1448.52 143.91 C 1448.39 154.549 1446.6 165.103 1443.23 175.196 C 1435.77 197.041 1420.82 209.047 1400.91 218.9 C 1401.3 228.872 1402.2 238.842 1403.14 248.778 C 1411.93 342.506 1415.74 436.54 1415.69 530.745 C 1405.15 530.149 1393.11 530.357 1382.44 530.314 L 1344.99 530.648 C 1346.05 485.545 1347.26 439.96 1349.23 394.899 C 1351.77 336.606 1356.72 278.177 1360.26 219.977 C 1287.47 184.733 1316.44 110.091 1324.14 47.3323 C 1324.85 41.504 1330.91 13.7476 1334.93 11.0663 C 1338.86 10.3678 1337.47 10.1157 1340.91 11.6415 C 1348.72 30.3744 1338.82 126.836 1349.04 135.877 C 1353.29 137.904 1356.16 138.1 1360.64 136.603 C 1363.18 135.752 1364.51 130.087 1364.8 127.655 C 1367.31 107.046 1367.87 23.9127 1375.47 9.08917 z"/>
</svg>